<svg xmlns="http://www.w3.org/2000/svg" viewBox="0 0 64 64" role="img" aria-label="Linxira icon">
  <defs>
    <linearGradient id="iframe" x1="96" y1="76" x2="416" y2="436" gradientUnits="userSpaceOnUse">
      <stop offset="0" stop-color="#68f2c6"/>
      <stop offset="0.48" stop-color="#23c7da"/>
      <stop offset="1" stop-color="#9861f3"/>
    </linearGradient>
    <linearGradient id="ibio" x1="166" y1="96" x2="346" y2="204" gradientUnits="userSpaceOnUse">
      <stop offset="0" stop-color="#8df7ce"/>
      <stop offset="1" stop-color="#35d9b9"/>
    </linearGradient>
    <linearGradient id="iphysics" x1="104" y1="188" x2="276" y2="392" gradientUnits="userSpaceOnUse">
      <stop offset="0" stop-color="#72f2cc"/>
      <stop offset="1" stop-color="#25c8e7"/>
    </linearGradient>
    <linearGradient id="ichem" x1="290" y1="248" x2="420" y2="394" gradientUnits="userSpaceOnUse">
      <stop offset="0" stop-color="#bf82fb"/>
      <stop offset="1" stop-color="#8b5cf6"/>
    </linearGradient>
    <filter id="iglow" x="-20%" y="-20%" width="140%" height="140%">
      <feDropShadow dx="0" dy="10" stdDeviation="10" flood-color="#0ea5b7" flood-opacity="0.22"/>
    </filter>
  </defs>
<g filter="url(#iglow)"><polygon points="32,7.25 48.25,16.5 45.25,21.75 32,14.25 18.75,21.75 15.75,16.5" fill="url(#iframe)"/><polygon points="12.75,22 18.75,22 18.75,40 32,47.5 29,52.75 12.75,43.5" fill="url(#iframe)"/><polygon points="51.25,23.5 51.25,38.75 45.25,38.75 45.25,27" fill="url(#iframe)"/><polygon points="42.25,43.75 45.25,49 32.5,56.5 29.5,51.25" fill="url(#iframe)"/><path d="M32 26.75 L32 32.25" fill="none" stroke="url(#iframe)" stroke-width="0.62" stroke-linecap="round" stroke-linejoin="round" opacity="0.55"/><path d="M28.25 34.5 L23.5 37.25" fill="none" stroke="url(#iframe)" stroke-width="0.62" stroke-linecap="round" stroke-linejoin="round" opacity="0.38"/><path d="M35.75 34.5 L40.75 37.25" fill="none" stroke="url(#iframe)" stroke-width="0.62" stroke-linecap="round" stroke-linejoin="round" opacity="0.38"/><path d="M22 18 L31.25 15.5 L40.75 18" fill="none" stroke="url(#ibio)" stroke-width="1.75" stroke-linecap="round" stroke-linejoin="round"/><path d="M28 20.5 L32.75 17.5 L37.5 20.5" fill="none" stroke="url(#ibio)" stroke-width="1.12" stroke-linecap="round" stroke-linejoin="round"/><path d="M31.25 15.5 L31.25 22" fill="none" stroke="url(#ibio)" stroke-width="1" stroke-linecap="round" stroke-linejoin="round"/><path d="M26.25 23 L31.25 22 L36.75 23.5" fill="none" stroke="url(#ibio)" stroke-width="1" stroke-linecap="round" stroke-linejoin="round"/><circle cx="22" cy="18" r="1.25" fill="url(#ibio)"/><circle cx="40.75" cy="18" r="1.25" fill="url(#ibio)"/><circle cx="31.25" cy="15.5" r="1.62" fill="url(#ibio)"/><circle cx="26.25" cy="23" r="1" fill="url(#ibio)"/><circle cx="36.75" cy="23.5" r="1" fill="url(#ibio)"/><path d="M21.75 26.25 L21.75 40.75 L32.5 47" fill="none" stroke="url(#iphysics)" stroke-width="1.25" stroke-linecap="round" stroke-linejoin="round"/><path d="M24.75 39.75 L31.5 43 L36.5 40.5" fill="none" stroke="url(#iphysics)" stroke-width="1" stroke-linecap="round" stroke-linejoin="round"/><path d="M24.25 31.75 C 28.25 27.25, 32.5 27.25, 37.5 31.5" fill="none" stroke="url(#iphysics)" stroke-width="1.25" stroke-linecap="round"/><path d="M23 36.5 L32.5 36.5" fill="none" stroke="url(#iphysics)" stroke-width="0.88" stroke-linecap="round" stroke-linejoin="round"/><circle cx="21.75" cy="26.25" r="2" fill="url(#iphysics)"/><circle cx="32.5" cy="47" r="1.5" fill="url(#iphysics)"/><circle cx="36.5" cy="40.5" r="1.25" fill="url(#iphysics)"/><path d="M41.75 42 L41.75 35.25" fill="none" stroke="url(#ichem)" stroke-width="1" stroke-linecap="round" stroke-linejoin="round"/><path d="M41.75 42 L36.5 39" fill="none" stroke="url(#ichem)" stroke-width="1" stroke-linecap="round" stroke-linejoin="round"/><path d="M41.75 42 L47.25 38.5" fill="none" stroke="url(#ichem)" stroke-width="1" stroke-linecap="round" stroke-linejoin="round"/><path d="M41.75 42 L41.75 48.75" fill="none" stroke="url(#ichem)" stroke-width="1" stroke-linecap="round" stroke-linejoin="round"/><path d="M41.75 42 L48.25 45.75" fill="none" stroke="url(#ichem)" stroke-width="1" stroke-linecap="round" stroke-linejoin="round"/><circle cx="41.75" cy="42" r="3.75" fill="url(#ichem)"/><circle cx="41.75" cy="35.25" r="2.25" fill="url(#ichem)"/><circle cx="36.5" cy="39" r="2" fill="url(#ichem)"/><circle cx="47.25" cy="38.5" r="2" fill="url(#ichem)"/><circle cx="41.75" cy="48.75" r="2.25" fill="url(#ichem)"/><circle cx="48.25" cy="45.75" r="1.75" fill="url(#ichem)"/></g>
</svg>
