<svg xmlns="http://www.w3.org/2000/svg" viewBox="0 0 920 300" role="img" aria-label="Linxira OS logo lockup">
  <defs>
    <linearGradient id="os" x1="0" y1="0" x2="1" y2="1"><stop offset="0" stop-color="#FFFFFF"/><stop offset="0.62" stop-color="#EAF6FF"/><stop offset="1" stop-color="#C89CFF"/></linearGradient>
  </defs>
  <g transform="translate(34 24) scale(.48)">
    <defs>
    <linearGradient id="preview-lockup-shell" x1="112" y1="100" x2="404" y2="420" gradientUnits="userSpaceOnUse">
      <stop offset="0" stop-color="#61F0C9"/>
      <stop offset="0.55" stop-color="#22C7DA"/>
      <stop offset="1" stop-color="#9861F3"/>
    </linearGradient>
    <linearGradient id="preview-lockup-left" x1="96" y1="104" x2="244" y2="420" gradientUnits="userSpaceOnUse">
      <stop offset="0" stop-color="#71F7D7"/>
      <stop offset="1" stop-color="#1BB6D6"/>
    </linearGradient>
    <linearGradient id="preview-lockup-right" x1="244" y1="104" x2="408" y2="420" gradientUnits="userSpaceOnUse">
      <stop offset="0" stop-color="#6FBDF9"/>
      <stop offset="1" stop-color="#A97BF8"/>
    </linearGradient>
    <linearGradient id="preview-lockup-beam" x1="180" y1="140" x2="354" y2="278" gradientUnits="userSpaceOnUse">
      <stop offset="0" stop-color="#F7FFFF"/>
      <stop offset="0.55" stop-color="#DFFBFF"/>
      <stop offset="1" stop-color="#8FE8FF"/>
    </linearGradient>
    <filter id="preview-lockup-shadow" x="-20%" y="-20%" width="140%" height="140%">
      <feDropShadow dx="0" dy="18" stdDeviation="18" flood-color="#020617" flood-opacity="0.42"/>
    </filter>
    <clipPath id="preview-lockup-clip">
      <path d="M144 104L320 104L408 188L394 342L304 420L176 420L88 332L88 188Z"/>
    </clipPath>
  </defs>
    <g id="preview-lockup-mark" filter="url(#preview-lockup-shadow)">
    <path d="M144 104L320 104L408 188L394 342L304 420L176 420L88 332L88 188Z" fill="url(#preview-lockup-shell)"/>
    <g clip-path="url(#preview-lockup-clip)">
      <path d="M144 104L244 104L244 420L176 420L88 332L88 188Z" fill="url(#preview-lockup-left)" opacity="0.95"/>
      <path d="M244 104L320 104L408 188L394 342L304 420L244 420Z" fill="url(#preview-lockup-right)" opacity="0.88"/>
      <path d="M188 156L262 128L352 236L318 274L226 182Z" fill="url(#preview-lockup-beam)"/>
      <circle cx="156" cy="136" r="12" fill="#F6FFFD"/>
      <circle cx="352" cy="236" r="11" fill="#D8B8FF"/>
    </g>
    <path d="M144 104L320 104L408 188L394 342L304 420L176 420L88 332L88 188Z" fill="none" stroke="#FFFFFF" stroke-opacity="0.14" stroke-width="3"/>
  </g>
  </g>
  <g id="wordmark" transform="translate(316 132)">
    <text x="0" y="0" font-family="Bahnschrift, Aptos Display, Segoe UI, sans-serif" font-size="92" font-weight="800" letter-spacing="-4" fill="#F8FAFC">Linxira</text>
    <text x="330" y="0" font-family="Bahnschrift, Aptos Display, Segoe UI, sans-serif" font-size="92" font-weight="800" letter-spacing="-4" fill="url(#os)">OS</text>
    <text x="4" y="50" font-family="Bahnschrift, Aptos, Segoe UI, sans-serif" font-size="18" letter-spacing="5" fill="#94A3B8">SCIENTIFIC LINUX WORKSTATION</text>
  </g>
</svg>
