<svg xmlns="http://www.w3.org/2000/svg" viewBox="0 0 240 240">
  <defs>
    <linearGradient id="g" x1="0" y1="0" x2="1" y2="1">
      <stop offset="0%" stop-color="#10B981"/>
      <stop offset="100%" stop-color="#06B6D4"/>
    </linearGradient>
  </defs>
  <rect width="240" height="240" rx="28" fill="#0B1121"/>
  <path d="M56 186H184" stroke="#223047" stroke-width="2" opacity="0.75"/>
  <path d="M56 186V56" stroke="#223047" stroke-width="2" opacity="0.75"/>
  <path d="M56 186H168" fill="none" stroke="url(#g)" stroke-width="14" stroke-linecap="round"/>
  <path d="M56 186V72" fill="none" stroke="url(#g)" stroke-width="14" stroke-linecap="round"/>
  <path d="M164 180L184 186L164 192" fill="none" stroke="#8B5CF6" stroke-width="5" stroke-linecap="round" stroke-linejoin="round"/>
  <path d="M50 78L56 56L62 78" fill="none" stroke="#8B5CF6" stroke-width="5" stroke-linecap="round" stroke-linejoin="round"/>
  <g fill="none" stroke="#94A3B8" stroke-width="3" opacity="0.85">
    <polygon points="112,94 134,106 134,130 112,142 90,130 90,106"/>
    <line x1="90" y1="106" x2="72" y2="118"/>
    <line x1="90" y1="130" x2="72" y2="142"/>
    <line x1="134" y1="106" x2="152" y2="94"/>
    <line x1="134" y1="130" x2="152" y2="142"/>
  </g>
  <g fill="#E2E8F0">
    <circle cx="112" cy="94" r="4"/>
    <circle cx="134" cy="106" r="4"/>
    <circle cx="134" cy="130" r="4"/>
    <circle cx="112" cy="142" r="4"/>
    <circle cx="90" cy="130" r="4"/>
    <circle cx="90" cy="106" r="4"/>
  </g>
</svg>
