<svg xmlns="http://www.w3.org/2000/svg" viewBox="0 0 512 512" role="img" aria-label="Linxira generated logo">
  <defs>
    <linearGradient id="cframe" x1="96" y1="76" x2="416" y2="436" gradientUnits="userSpaceOnUse">
      <stop offset="0" stop-color="#68f2c6"/>
      <stop offset="0.48" stop-color="#23c7da"/>
      <stop offset="1" stop-color="#9861f3"/>
    </linearGradient>
    <linearGradient id="cbio" x1="166" y1="96" x2="346" y2="204" gradientUnits="userSpaceOnUse">
      <stop offset="0" stop-color="#8df7ce"/>
      <stop offset="1" stop-color="#35d9b9"/>
    </linearGradient>
    <linearGradient id="cphysics" x1="104" y1="188" x2="276" y2="392" gradientUnits="userSpaceOnUse">
      <stop offset="0" stop-color="#72f2cc"/>
      <stop offset="1" stop-color="#25c8e7"/>
    </linearGradient>
    <linearGradient id="cchem" x1="290" y1="248" x2="420" y2="394" gradientUnits="userSpaceOnUse">
      <stop offset="0" stop-color="#bf82fb"/>
      <stop offset="1" stop-color="#8b5cf6"/>
    </linearGradient>
    <filter id="cglow" x="-20%" y="-20%" width="140%" height="140%">
      <feDropShadow dx="0" dy="10" stdDeviation="10" flood-color="#0ea5b7" flood-opacity="0.22"/>
    </filter>
  </defs>
<g filter="url(#cglow)"><polygon points="256,58 386,132 362,174 256,114 150,174 126,132" fill="url(#cframe)"/><polygon points="102,176 150,176 150,320 256,380 232,422 102,348" fill="url(#cframe)"/><polygon points="410,188 410,310 362,310 362,216" fill="url(#cframe)"/><polygon points="338,350 362,392 260,452 236,410" fill="url(#cframe)"/><path d="M256 214 L256 258" fill="none" stroke="url(#cframe)" stroke-width="5" stroke-linecap="round" stroke-linejoin="round" opacity="0.55"/><path d="M226 276 L188 298" fill="none" stroke="url(#cframe)" stroke-width="5" stroke-linecap="round" stroke-linejoin="round" opacity="0.38"/><path d="M286 276 L326 298" fill="none" stroke="url(#cframe)" stroke-width="5" stroke-linecap="round" stroke-linejoin="round" opacity="0.38"/><path d="M176 144 L250 124 L326 144" fill="none" stroke="url(#cbio)" stroke-width="14" stroke-linecap="round" stroke-linejoin="round"/><path d="M224 164 L262 140 L300 164" fill="none" stroke="url(#cbio)" stroke-width="9" stroke-linecap="round" stroke-linejoin="round"/><path d="M250 124 L250 176" fill="none" stroke="url(#cbio)" stroke-width="8" stroke-linecap="round" stroke-linejoin="round"/><path d="M210 184 L250 176 L294 188" fill="none" stroke="url(#cbio)" stroke-width="8" stroke-linecap="round" stroke-linejoin="round"/><circle cx="176" cy="144" r="10" fill="url(#cbio)"/><circle cx="326" cy="144" r="10" fill="url(#cbio)"/><circle cx="250" cy="124" r="13" fill="url(#cbio)"/><circle cx="210" cy="184" r="8" fill="url(#cbio)"/><circle cx="294" cy="188" r="8" fill="url(#cbio)"/><path d="M174 210 L174 326 L260 376" fill="none" stroke="url(#cphysics)" stroke-width="10" stroke-linecap="round" stroke-linejoin="round"/><path d="M198 318 L252 344 L292 324" fill="none" stroke="url(#cphysics)" stroke-width="8" stroke-linecap="round" stroke-linejoin="round"/><path d="M194 254 C 226 218, 260 218, 300 252" fill="none" stroke="url(#cphysics)" stroke-width="10" stroke-linecap="round"/><path d="M184 292 L260 292" fill="none" stroke="url(#cphysics)" stroke-width="7" stroke-linecap="round" stroke-linejoin="round"/><circle cx="174" cy="210" r="16" fill="url(#cphysics)"/><circle cx="260" cy="376" r="12" fill="url(#cphysics)"/><circle cx="292" cy="324" r="10" fill="url(#cphysics)"/><path d="M334 336 L334 282" fill="none" stroke="url(#cchem)" stroke-width="8" stroke-linecap="round" stroke-linejoin="round"/><path d="M334 336 L292 312" fill="none" stroke="url(#cchem)" stroke-width="8" stroke-linecap="round" stroke-linejoin="round"/><path d="M334 336 L378 308" fill="none" stroke="url(#cchem)" stroke-width="8" stroke-linecap="round" stroke-linejoin="round"/><path d="M334 336 L334 390" fill="none" stroke="url(#cchem)" stroke-width="8" stroke-linecap="round" stroke-linejoin="round"/><path d="M334 336 L386 366" fill="none" stroke="url(#cchem)" stroke-width="8" stroke-linecap="round" stroke-linejoin="round"/><circle cx="334" cy="336" r="30" fill="url(#cchem)"/><circle cx="334" cy="282" r="18" fill="url(#cchem)"/><circle cx="292" cy="312" r="16" fill="url(#cchem)"/><circle cx="378" cy="308" r="16" fill="url(#cchem)"/><circle cx="334" cy="390" r="18" fill="url(#cchem)"/><circle cx="386" cy="366" r="14" fill="url(#cchem)"/></g>
</svg>
