<svg xmlns="http://www.w3.org/2000/svg" viewBox="0 0 920 760" role="img" aria-label="Linxira generated logo lockup">
  <defs>
    <linearGradient id="lframe" x1="96" y1="76" x2="416" y2="436" gradientUnits="userSpaceOnUse">
      <stop offset="0" stop-color="#68f2c6"/>
      <stop offset="0.48" stop-color="#23c7da"/>
      <stop offset="1" stop-color="#9861f3"/>
    </linearGradient>
    <linearGradient id="lbio" x1="166" y1="96" x2="346" y2="204" gradientUnits="userSpaceOnUse">
      <stop offset="0" stop-color="#8df7ce"/>
      <stop offset="1" stop-color="#35d9b9"/>
    </linearGradient>
    <linearGradient id="lphysics" x1="104" y1="188" x2="276" y2="392" gradientUnits="userSpaceOnUse">
      <stop offset="0" stop-color="#72f2cc"/>
      <stop offset="1" stop-color="#25c8e7"/>
    </linearGradient>
    <linearGradient id="lchem" x1="290" y1="248" x2="420" y2="394" gradientUnits="userSpaceOnUse">
      <stop offset="0" stop-color="#bf82fb"/>
      <stop offset="1" stop-color="#8b5cf6"/>
    </linearGradient>
    <filter id="lglow" x="-20%" y="-20%" width="140%" height="140%">
      <feDropShadow dx="0" dy="10" stdDeviation="10" flood-color="#0ea5b7" flood-opacity="0.22"/>
    </filter>
  </defs>
<g filter="url(#lglow)"><polygon points="459.92,67.56 566.52,128.24 546.84,162.68 459.92,113.48 373,162.68 353.32,128.24" fill="url(#lframe)"/><polygon points="333.64,164.32 373,164.32 373,282.4 459.92,331.6 440.24,366.04 333.64,305.36" fill="url(#lframe)"/><polygon points="586.2,174.16 586.2,274.2 546.84,274.2 546.84,197.12" fill="url(#lframe)"/><polygon points="527.16,307 546.84,341.44 463.2,390.64 443.52,356.2" fill="url(#lframe)"/><path d="M459.92 195.48 L459.92 231.56" fill="none" stroke="url(#lframe)" stroke-width="4.1" stroke-linecap="round" stroke-linejoin="round" opacity="0.55"/><path d="M435.32 246.32 L404.16 264.36" fill="none" stroke="url(#lframe)" stroke-width="4.1" stroke-linecap="round" stroke-linejoin="round" opacity="0.38"/><path d="M484.52 246.32 L517.32 264.36" fill="none" stroke="url(#lframe)" stroke-width="4.1" stroke-linecap="round" stroke-linejoin="round" opacity="0.38"/><path d="M394.32 138.08 L455 121.68 L517.32 138.08" fill="none" stroke="url(#lbio)" stroke-width="11.48" stroke-linecap="round" stroke-linejoin="round"/><path d="M433.68 154.48 L464.84 134.8 L496 154.48" fill="none" stroke="url(#lbio)" stroke-width="7.38" stroke-linecap="round" stroke-linejoin="round"/><path d="M455 121.68 L455 164.32" fill="none" stroke="url(#lbio)" stroke-width="6.56" stroke-linecap="round" stroke-linejoin="round"/><path d="M422.2 170.88 L455 164.32 L491.08 174.16" fill="none" stroke="url(#lbio)" stroke-width="6.56" stroke-linecap="round" stroke-linejoin="round"/><circle cx="394.32" cy="138.08" r="8.2" fill="url(#lbio)"/><circle cx="517.32" cy="138.08" r="8.2" fill="url(#lbio)"/><circle cx="455" cy="121.68" r="10.66" fill="url(#lbio)"/><circle cx="422.2" cy="170.88" r="6.56" fill="url(#lbio)"/><circle cx="491.08" cy="174.16" r="6.56" fill="url(#lbio)"/><path d="M392.68 192.2 L392.68 287.32 L463.2 328.32" fill="none" stroke="url(#lphysics)" stroke-width="8.2" stroke-linecap="round" stroke-linejoin="round"/><path d="M412.36 280.76 L456.64 302.08 L489.44 285.68" fill="none" stroke="url(#lphysics)" stroke-width="6.56" stroke-linecap="round" stroke-linejoin="round"/><path d="M409.08 228.28 C 435.32 198.76, 463.2 198.76, 496 226.64" fill="none" stroke="url(#lphysics)" stroke-width="8.2" stroke-linecap="round"/><path d="M400.88 259.44 L463.2 259.44" fill="none" stroke="url(#lphysics)" stroke-width="5.74" stroke-linecap="round" stroke-linejoin="round"/><circle cx="392.68" cy="192.2" r="13.12" fill="url(#lphysics)"/><circle cx="463.2" cy="328.32" r="9.84" fill="url(#lphysics)"/><circle cx="489.44" cy="285.68" r="8.2" fill="url(#lphysics)"/><path d="M523.88 295.52 L523.88 251.24" fill="none" stroke="url(#lchem)" stroke-width="6.56" stroke-linecap="round" stroke-linejoin="round"/><path d="M523.88 295.52 L489.44 275.84" fill="none" stroke="url(#lchem)" stroke-width="6.56" stroke-linecap="round" stroke-linejoin="round"/><path d="M523.88 295.52 L559.96 272.56" fill="none" stroke="url(#lchem)" stroke-width="6.56" stroke-linecap="round" stroke-linejoin="round"/><path d="M523.88 295.52 L523.88 339.8" fill="none" stroke="url(#lchem)" stroke-width="6.56" stroke-linecap="round" stroke-linejoin="round"/><path d="M523.88 295.52 L566.52 320.12" fill="none" stroke="url(#lchem)" stroke-width="6.56" stroke-linecap="round" stroke-linejoin="round"/><circle cx="523.88" cy="295.52" r="24.6" fill="url(#lchem)"/><circle cx="523.88" cy="251.24" r="14.76" fill="url(#lchem)"/><circle cx="489.44" cy="275.84" r="13.12" fill="url(#lchem)"/><circle cx="559.96" cy="272.56" r="13.12" fill="url(#lchem)"/><circle cx="523.88" cy="339.8" r="14.76" fill="url(#lchem)"/><circle cx="566.52" cy="320.12" r="11.48" fill="url(#lchem)"/></g>
  <defs>
    <linearGradient id="wordOs" x1="0" y1="0" x2="1" y2="1"><stop offset="0" stop-color="#ffffff"/><stop offset="0.62" stop-color="#e8f2ff"/><stop offset="1" stop-color="#c88dff"/></linearGradient>
  </defs>
  <text x="142" y="560" font-family="Bahnschrift, Aptos Display, Segoe UI, sans-serif" font-size="116" font-weight="700" letter-spacing="-4" fill="#f8fafc">Linxira</text>
  <text x="642" y="560" font-family="Bahnschrift, Aptos Display, Segoe UI, sans-serif" font-size="116" font-weight="700" letter-spacing="-4" fill="url(#wordOs)">OS</text>
  <text x="286" y="632" font-family="Bahnschrift, Aptos, Segoe UI, sans-serif" font-size="38" letter-spacing="5" fill="url(#lcyan)">LINUX FOR SCIENCE</text>
</svg>
