<svg xmlns="http://www.w3.org/2000/svg" viewBox="0 0 240 240">
  <defs>
    <linearGradient id="g" x1="0" y1="0" x2="1" y2="1">
      <stop offset="0%" stop-color="#10B981"/>
      <stop offset="100%" stop-color="#06B6D4"/>
    </linearGradient>
  </defs>
  <rect width="240" height="240" rx="28" fill="#0B1121"/>
  <path d="M56 186H184" stroke="#223047" stroke-width="2" opacity="0.75"/>
  <path d="M56 186V56" stroke="#223047" stroke-width="2" opacity="0.75"/>
  <path d="M56 186H168" fill="none" stroke="url(#g)" stroke-width="14" stroke-linecap="round"/>
  <path d="M56 186V72" fill="none" stroke="url(#g)" stroke-width="14" stroke-linecap="round"/>
  <path d="M164 180L184 186L164 192" fill="none" stroke="#8B5CF6" stroke-width="5" stroke-linecap="round" stroke-linejoin="round"/>
  <path d="M50 78L56 56L62 78" fill="none" stroke="#8B5CF6" stroke-width="5" stroke-linecap="round" stroke-linejoin="round"/>
  <g fill="none" stroke="#8B5CF6" stroke-width="3" opacity="0.9">
    <line x1="88" y1="144" x2="118" y2="116"/>
    <line x1="118" y1="116" x2="154" y2="126"/>
    <line x1="118" y1="116" x2="132" y2="84"/>
    <line x1="154" y1="126" x2="164" y2="92"/>
    <line x1="132" y1="84" x2="164" y2="92"/>
  </g>
  <g>
    <circle cx="88" cy="144" r="8" fill="#E2E8F0"/>
    <circle cx="118" cy="116" r="8" fill="#10B981"/>
    <circle cx="154" cy="126" r="8" fill="#06B6D4"/>
    <circle cx="132" cy="84" r="7" fill="#E2E8F0"/>
    <circle cx="164" cy="92" r="7" fill="#8B5CF6"/>
  </g>
</svg>
