<svg xmlns="http://www.w3.org/2000/svg" viewBox="0 0 360 376" role="img" aria-label="Linxira terminal character logo">
  <rect width="360" height="376" rx="24" fill="#071426"/>
  <g font-family="Cascadia Mono, Consolas, monospace" font-size="18" font-weight="800" text-anchor="middle" dominant-baseline="middle">
    <text x="124" y="116" fill="#2CD0E0">#</text><text x="140" y="116" fill="#F8FAFC">*</text><text x="156" y="116" fill="#2CD0E0">#</text><text x="172" y="116" fill="#2CD0E0">#</text><text x="188" y="116" fill="#2CD0E0">#</text><text x="204" y="116" fill="#A97BF8">$</text><text x="220" y="116" fill="#A97BF8">$</text><text x="236" y="116" fill="#A97BF8">$</text><text x="252" y="116" fill="#A97BF8">$</text><text x="268" y="116" fill="#A97BF8">$</text><text x="108" y="134" fill="#2CD0E0">#</text><text x="124" y="134" fill="#2CD0E0">#</text><text x="140" y="134" fill="#2CD0E0">#</text><text x="156" y="134" fill="#2CD0E0">#</text><text x="172" y="134" fill="#DFFBFF">+</text><text x="188" y="134" fill="#DFFBFF">+</text><text x="204" y="134" fill="#DFFBFF">+</text><text x="220" y="134" fill="#DFFBFF">+</text><text x="236" y="134" fill="#A97BF8">$</text><text x="252" y="134" fill="#A97BF8">$</text><text x="268" y="134" fill="#A97BF8">$</text><text x="284" y="134" fill="#A97BF8">$</text><text x="300" y="134" fill="#A97BF8">$</text><text x="92" y="152" fill="#2CD0E0">#</text><text x="108" y="152" fill="#2CD0E0">#</text><text x="124" y="152" fill="#2CD0E0">#</text><text x="140" y="152" fill="#2CD0E0">#</text><text x="156" y="152" fill="#2CD0E0">#</text><text x="172" y="152" fill="#2CD0E0">#</text><text x="188" y="152" fill="#2CD0E0">#</text><text x="204" y="152" fill="#DFFBFF">+</text><text x="220" y="152" fill="#DFFBFF">+</text><text x="236" y="152" fill="#DFFBFF">+</text><text x="252" y="152" fill="#DFFBFF">+</text><text x="268" y="152" fill="#A97BF8">$</text><text x="284" y="152" fill="#A97BF8">$</text><text x="300" y="152" fill="#A97BF8">$</text><text x="316" y="152" fill="#A97BF8">$</text><text x="92" y="170" fill="#2CD0E0">#</text><text x="108" y="170" fill="#2CD0E0">#</text><text x="124" y="170" fill="#2CD0E0">#</text><text x="140" y="170" fill="#2CD0E0">#</text><text x="156" y="170" fill="#2CD0E0">#</text><text x="172" y="170" fill="#2CD0E0">#</text><text x="188" y="170" fill="#2CD0E0">#</text><text x="204" y="170" fill="#A97BF8">$</text><text x="220" y="170" fill="#DFFBFF">+</text><text x="236" y="170" fill="#DFFBFF">+</text><text x="252" y="170" fill="#DFFBFF">+</text><text x="268" y="170" fill="#DFFBFF">+</text><text x="284" y="170" fill="#A97BF8">$</text><text x="300" y="170" fill="#A97BF8">$</text><text x="316" y="170" fill="#A97BF8">$</text><text x="92" y="188" fill="#2CD0E0">#</text><text x="108" y="188" fill="#2CD0E0">#</text><text x="124" y="188" fill="#2CD0E0">#</text><text x="140" y="188" fill="#2CD0E0">#</text><text x="156" y="188" fill="#2CD0E0">#</text><text x="172" y="188" fill="#2CD0E0">#</text><text x="188" y="188" fill="#2CD0E0">#</text><text x="204" y="188" fill="#A97BF8">$</text><text x="220" y="188" fill="#A97BF8">$</text><text x="236" y="188" fill="#DFFBFF">+</text><text x="252" y="188" fill="#DFFBFF">+</text><text x="268" y="188" fill="#DFFBFF">+</text><text x="284" y="188" fill="#F8FAFC">*</text><text x="300" y="188" fill="#A97BF8">$</text><text x="316" y="188" fill="#A97BF8">$</text><text x="92" y="206" fill="#2CD0E0">#</text><text x="108" y="206" fill="#2CD0E0">#</text><text x="124" y="206" fill="#2CD0E0">#</text><text x="140" y="206" fill="#2CD0E0">#</text><text x="156" y="206" fill="#2CD0E0">#</text><text x="172" y="206" fill="#2CD0E0">#</text><text x="188" y="206" fill="#2CD0E0">#</text><text x="204" y="206" fill="#A97BF8">$</text><text x="220" y="206" fill="#A97BF8">$</text><text x="236" y="206" fill="#A97BF8">$</text><text x="252" y="206" fill="#A97BF8">$</text><text x="268" y="206" fill="#A97BF8">$</text><text x="284" y="206" fill="#A97BF8">$</text><text x="300" y="206" fill="#A97BF8">$</text><text x="316" y="206" fill="#A97BF8">$</text><text x="92" y="224" fill="#2CD0E0">#</text><text x="108" y="224" fill="#2CD0E0">#</text><text x="124" y="224" fill="#2CD0E0">#</text><text x="140" y="224" fill="#2CD0E0">#</text><text x="156" y="224" fill="#2CD0E0">#</text><text x="172" y="224" fill="#2CD0E0">#</text><text x="188" y="224" fill="#2CD0E0">#</text><text x="204" y="224" fill="#A97BF8">$</text><text x="220" y="224" fill="#A97BF8">$</text><text x="236" y="224" fill="#A97BF8">$</text><text x="252" y="224" fill="#A97BF8">$</text><text x="268" y="224" fill="#A97BF8">$</text><text x="284" y="224" fill="#A97BF8">$</text><text x="300" y="224" fill="#A97BF8">$</text><text x="316" y="224" fill="#A97BF8">$</text><text x="92" y="242" fill="#2CD0E0">#</text><text x="108" y="242" fill="#2CD0E0">#</text><text x="124" y="242" fill="#2CD0E0">#</text><text x="140" y="242" fill="#2CD0E0">#</text><text x="156" y="242" fill="#2CD0E0">#</text><text x="172" y="242" fill="#2CD0E0">#</text><text x="188" y="242" fill="#2CD0E0">#</text><text x="204" y="242" fill="#A97BF8">$</text><text x="220" y="242" fill="#A97BF8">$</text><text x="236" y="242" fill="#A97BF8">$</text><text x="252" y="242" fill="#A97BF8">$</text><text x="268" y="242" fill="#A97BF8">$</text><text x="284" y="242" fill="#A97BF8">$</text><text x="300" y="242" fill="#A97BF8">$</text><text x="316" y="242" fill="#A97BF8">$</text><text x="108" y="260" fill="#2CD0E0">#</text><text x="124" y="260" fill="#2CD0E0">#</text><text x="140" y="260" fill="#2CD0E0">#</text><text x="156" y="260" fill="#2CD0E0">#</text><text x="172" y="260" fill="#2CD0E0">#</text><text x="188" y="260" fill="#2CD0E0">#</text><text x="204" y="260" fill="#A97BF8">$</text><text x="220" y="260" fill="#A97BF8">$</text><text x="236" y="260" fill="#A97BF8">$</text><text x="252" y="260" fill="#A97BF8">$</text><text x="268" y="260" fill="#A97BF8">$</text><text x="284" y="260" fill="#A97BF8">$</text><text x="300" y="260" fill="#A97BF8">$</text><text x="140" y="278" fill="#2CD0E0">#</text><text x="156" y="278" fill="#2CD0E0">#</text><text x="172" y="278" fill="#2CD0E0">#</text><text x="188" y="278" fill="#2CD0E0">#</text><text x="204" y="278" fill="#A97BF8">$</text><text x="220" y="278" fill="#A97BF8">$</text><text x="236" y="278" fill="#A97BF8">$</text><text x="252" y="278" fill="#A97BF8">$</text><text x="268" y="278" fill="#A97BF8">$</text><text x="156" y="296" fill="#2CD0E0">#</text><text x="172" y="296" fill="#2CD0E0">#</text><text x="188" y="296" fill="#2CD0E0">#</text><text x="204" y="296" fill="#A97BF8">$</text><text x="220" y="296" fill="#A97BF8">$</text><text x="236" y="296" fill="#A97BF8">$</text><text x="252" y="296" fill="#A97BF8">$</text>
  </g>
</svg>
