<svg xmlns="http://www.w3.org/2000/svg" viewBox="0 0 1200 400" role="img" aria-label="Linxira welcome banner">
  <defs>
    <radialGradient id="bannerBg" cx="23%" cy="45%" r="70%"><stop offset="0" stop-color="#10263c"/><stop offset="0.58" stop-color="#071426"/><stop offset="1" stop-color="#020617"/></radialGradient>
    <linearGradient id="subtitle" x1="420" y1="0" x2="820" y2="0" gradientUnits="userSpaceOnUse"><stop offset="0" stop-color="#70f1c5"/><stop offset="0.56" stop-color="#22c8db"/><stop offset="1" stop-color="#9b5cf4"/></linearGradient>
  </defs>
  <rect width="1200" height="400" fill="url(#bannerBg)"/>
  <defs>
    <linearGradient id="wframe" x1="96" y1="76" x2="416" y2="436" gradientUnits="userSpaceOnUse">
      <stop offset="0" stop-color="#68f2c6"/>
      <stop offset="0.48" stop-color="#23c7da"/>
      <stop offset="1" stop-color="#9861f3"/>
    </linearGradient>
    <linearGradient id="wbio" x1="166" y1="96" x2="346" y2="204" gradientUnits="userSpaceOnUse">
      <stop offset="0" stop-color="#8df7ce"/>
      <stop offset="1" stop-color="#35d9b9"/>
    </linearGradient>
    <linearGradient id="wphysics" x1="104" y1="188" x2="276" y2="392" gradientUnits="userSpaceOnUse">
      <stop offset="0" stop-color="#72f2cc"/>
      <stop offset="1" stop-color="#25c8e7"/>
    </linearGradient>
    <linearGradient id="wchem" x1="290" y1="248" x2="420" y2="394" gradientUnits="userSpaceOnUse">
      <stop offset="0" stop-color="#bf82fb"/>
      <stop offset="1" stop-color="#8b5cf6"/>
    </linearGradient>
    <filter id="wglow" x="-20%" y="-20%" width="140%" height="140%">
      <feDropShadow dx="0" dy="10" stdDeviation="10" flood-color="#0ea5b7" flood-opacity="0.22"/>
    </filter>
  </defs>
<g filter="url(#wglow)"><polygon points="190.48,81.64 265.88,124.56 251.96,148.92 190.48,114.12 129,148.92 115.08,124.56" fill="url(#wframe)"/><polygon points="101.16,150.08 129,150.08 129,233.6 190.48,268.4 176.56,292.76 101.16,249.84" fill="url(#wframe)"/><polygon points="279.8,157.04 279.8,227.8 251.96,227.8 251.96,173.28" fill="url(#wframe)"/><polygon points="238.04,251 251.96,275.36 192.8,310.16 178.88,285.8" fill="url(#wframe)"/><path d="M190.48 172.12 L190.48 197.64" fill="none" stroke="url(#wframe)" stroke-width="2.9" stroke-linecap="round" stroke-linejoin="round" opacity="0.55"/><path d="M173.08 208.08 L151.04 220.84" fill="none" stroke="url(#wframe)" stroke-width="2.9" stroke-linecap="round" stroke-linejoin="round" opacity="0.38"/><path d="M207.88 208.08 L231.08 220.84" fill="none" stroke="url(#wframe)" stroke-width="2.9" stroke-linecap="round" stroke-linejoin="round" opacity="0.38"/><path d="M144.08 131.52 L187 119.92 L231.08 131.52" fill="none" stroke="url(#wbio)" stroke-width="8.12" stroke-linecap="round" stroke-linejoin="round"/><path d="M171.92 143.12 L193.96 129.2 L216 143.12" fill="none" stroke="url(#wbio)" stroke-width="5.22" stroke-linecap="round" stroke-linejoin="round"/><path d="M187 119.92 L187 150.08" fill="none" stroke="url(#wbio)" stroke-width="4.64" stroke-linecap="round" stroke-linejoin="round"/><path d="M163.8 154.72 L187 150.08 L212.52 157.04" fill="none" stroke="url(#wbio)" stroke-width="4.64" stroke-linecap="round" stroke-linejoin="round"/><circle cx="144.08" cy="131.52" r="5.8" fill="url(#wbio)"/><circle cx="231.08" cy="131.52" r="5.8" fill="url(#wbio)"/><circle cx="187" cy="119.92" r="7.54" fill="url(#wbio)"/><circle cx="163.8" cy="154.72" r="4.64" fill="url(#wbio)"/><circle cx="212.52" cy="157.04" r="4.64" fill="url(#wbio)"/><path d="M142.92 169.8 L142.92 237.08 L192.8 266.08" fill="none" stroke="url(#wphysics)" stroke-width="5.8" stroke-linecap="round" stroke-linejoin="round"/><path d="M156.84 232.44 L188.16 247.52 L211.36 235.92" fill="none" stroke="url(#wphysics)" stroke-width="4.64" stroke-linecap="round" stroke-linejoin="round"/><path d="M154.52 195.32 C 173.08 174.44, 192.8 174.44, 216 194.16" fill="none" stroke="url(#wphysics)" stroke-width="5.8" stroke-linecap="round"/><path d="M148.72 217.36 L192.8 217.36" fill="none" stroke="url(#wphysics)" stroke-width="4.06" stroke-linecap="round" stroke-linejoin="round"/><circle cx="142.92" cy="169.8" r="9.28" fill="url(#wphysics)"/><circle cx="192.8" cy="266.08" r="6.96" fill="url(#wphysics)"/><circle cx="211.36" cy="235.92" r="5.8" fill="url(#wphysics)"/><path d="M235.72 242.88 L235.72 211.56" fill="none" stroke="url(#wchem)" stroke-width="4.64" stroke-linecap="round" stroke-linejoin="round"/><path d="M235.72 242.88 L211.36 228.96" fill="none" stroke="url(#wchem)" stroke-width="4.64" stroke-linecap="round" stroke-linejoin="round"/><path d="M235.72 242.88 L261.24 226.64" fill="none" stroke="url(#wchem)" stroke-width="4.64" stroke-linecap="round" stroke-linejoin="round"/><path d="M235.72 242.88 L235.72 274.2" fill="none" stroke="url(#wchem)" stroke-width="4.64" stroke-linecap="round" stroke-linejoin="round"/><path d="M235.72 242.88 L265.88 260.28" fill="none" stroke="url(#wchem)" stroke-width="4.64" stroke-linecap="round" stroke-linejoin="round"/><circle cx="235.72" cy="242.88" r="17.4" fill="url(#wchem)"/><circle cx="235.72" cy="211.56" r="10.44" fill="url(#wchem)"/><circle cx="211.36" cy="228.96" r="9.28" fill="url(#wchem)"/><circle cx="261.24" cy="226.64" r="9.28" fill="url(#wchem)"/><circle cx="235.72" cy="274.2" r="10.44" fill="url(#wchem)"/><circle cx="265.88" cy="260.28" r="8.12" fill="url(#wchem)"/></g>
  <text x="420" y="170" font-family="Bahnschrift, Aptos Display, Segoe UI, sans-serif" font-size="72" font-weight="700" letter-spacing="-2" fill="#f8fafc">Linxira OS</text>
  <text x="424" y="236" font-family="Bahnschrift, Aptos, Segoe UI, sans-serif" font-size="28" letter-spacing="5" fill="url(#subtitle)">STABLE WORKSTATION BASELINE</text>
</svg>
